<!DOCTYPE svg PUBLIC "-//W3C//DTD SVG 1.1//EN" "http://www.w3.org/Graphics/SVG/1.1/DTD/svg11.dtd">
<!-- Uploaded to: SVG Repo, www.svgrepo.com, Transformed by: SVG Repo Mixer Tools -->
<svg fill="#ffffff" height="800px" width="800px" version="1.1" id="Layer_1" xmlns="http://www.w3.org/2000/svg" xmlns:xlink="http://www.w3.org/1999/xlink" viewBox="-51.2 -51.2 614.40 614.40" xml:space="preserve" stroke="#ffffff">
<g id="SVGRepo_bgCarrier" stroke-width="0"/>
<g id="SVGRepo_tracerCarrier" stroke-linecap="round" stroke-linejoin="round"/>
<g id="SVGRepo_iconCarrier"> <g> <g> <path d="M507.632,412.83L374.923,280.121c-9.325-9.325-25.361-2.718-25.361,10.505v114.815h-17.471 c-3.828,0-6.942-3.114-6.942-6.942l-0.345-126.205c0-10.695-6.894-20.17-17.069-23.461l-7.078-2.289V66.447 c0-9.26-7.508-16.768-16.768-16.768H115.509c-9.26,0-16.768,7.508-16.768,16.768v114.778l-14.5-4.691 c-12.536-4.056-25.383,5.315-25.383,18.467v26.016H19.41C8.69,221.018,0,229.707,0,240.427V360.15 c15.701-24.92,43.447-41.524,75.014-41.524c29.231,0,55.191,14.234,71.342,36.126c16.15-21.892,42.111-36.126,71.342-36.126 c30.84,0,58.038,15.845,73.915,39.812c9.279,14.007,14.701,30.782,14.701,48.805c0,6.987-0.838,13.778-2.374,20.303 c7.291,7.068,17.219,11.432,28.151,11.432h64.418v-0.786h100.618C510.316,438.191,516.982,422.18,507.632,412.83z M267.121,205.681l-25.296-29.131c-6.073-6.992-16.663-7.737-23.655-1.666c-6.992,6.072-7.738,16.663-1.666,23.655l25.095,28.898 l-109.321-35.364V83.215h134.843V205.681z"/> </g> </g> <g> <g> <path d="M75.014,352.161c-30.419,0-55.081,24.66-55.081,55.081c0,30.419,24.66,55.08,55.081,55.08 c31.014,0,55.218-25.476,55.218-55.081C130.232,377.653,106.047,352.161,75.014,352.161z M75.014,424.553 c-9.56,0-17.311-7.75-17.311-17.311c0-9.561,7.75-17.311,17.311-17.311c9.561,0,17.311,7.75,17.311,17.311 C92.325,416.803,84.575,424.553,75.014,424.553z"/> </g> </g> <g> <g> <path d="M217.698,352.161c-30.421,0-55.081,24.66-55.081,55.081c0,30.419,24.66,55.08,55.081,55.08 c30.419,0,55.08-24.66,55.08-55.08C272.778,376.821,248.118,352.161,217.698,352.161z M217.698,424.553 c-9.56,0-17.311-7.75-17.311-17.311c0-9.561,7.75-17.311,17.311-17.311c9.561,0,17.311,7.75,17.311,17.311 C235.01,416.803,227.258,424.553,217.698,424.553z"/> </g> </g> </g>
</svg>